<svg xmlns="http://www.w3.org/2000/svg" width="440" height="440" viewBox="0 0 440 440" fill="none"><path d="M211.506 3.50121C200.709 4.97892 190.717 8.85428 181.485 15.1439C176.829 18.3158 167.405 27.6566 164.288 32.1905C162.023 35.4823 144.022 70.393 144.022 71.4919C144.022 71.9606 146.551 72.5376 149.641 72.774C152.731 73.0104 157.443 74.0344 160.109 75.0501C166.194 77.3661 174.341 83.4635 178.053 88.4777C180.61 91.9327 230.593 189.309 285.479 297.763C309.199 344.632 309.634 345.811 310.327 365.028C310.585 372.178 310.353 378.934 309.713 382.927C306.852 400.788 298.016 418.533 285.278 432.006L281.145 436.377L330.593 436.363C384.015 436.347 385.465 436.246 397.235 431.749C417.769 423.902 434.982 402.901 438.787 381.052C440.239 372.714 439.375 356.669 437.085 349.468C435.147 343.367 281.827 41.5571 276.284 32.929C272.673 27.307 263.995 18.5839 257.852 14.3972C245.218 5.78813 226.662 1.42575 211.506 3.50121Z" fill="#EE7501"></path><path d="M135.096 97.1675C132.754 98.3347 129.931 100.488 128.825 101.955C125.177 106.786 5.2218 343.32 3.40525 349.264C-4.44537 374.946 3.93211 403.05 24.6959 420.681C43.2119 436.403 70.3216 440.769 93.0301 431.684C102.273 427.987 108.296 423.962 115.801 416.47C122.494 409.787 129.982 398.984 131.201 394.253C131.513 393.043 126.373 382.168 114.481 358.871C105.037 340.372 96.7306 323.473 96.023 321.317C94.0133 315.202 94.7518 304.033 97.5641 297.998C102.128 288.202 111.855 280.796 122.405 279.085C125.472 278.587 141.256 278.209 159.096 278.206L190.404 278.199L204.884 249.738C212.848 234.084 219.48 220.628 219.622 219.835C219.763 219.044 206.56 192.234 190.282 160.259C158.709 98.2398 158.63 98.1083 151.484 95.967C146.121 94.3603 139.8 94.8232 135.096 97.1675Z" fill="#F7A619"></path><path d="M124.279 301.6C122.808 302.025 120.654 303.62 119.492 305.142L119.359 305.317C118.698 306.183 118.141 306.911 117.775 307.725C115.829 312.05 119.259 318.792 140.906 361.355L141.732 362.98C168.629 415.867 168.859 416.227 181.035 424.643C219.398 451.165 271.51 433.152 285.579 388.507C286.947 384.162 287.521 379.809 287.832 371.399C288.455 354.579 287.447 351.236 273.347 323.363L261.872 300.677L194.413 300.752C155.604 300.795 125.819 301.155 124.279 301.6Z" fill="#2C7EB3"></path></svg>