<?xml version="1.0" standalone="no"?>
<!DOCTYPE svg PUBLIC "-//W3C//DTD SVG 20010904//EN"
 "http://www.w3.org/TR/2001/REC-SVG-20010904/DTD/svg10.dtd">
<svg version="1.0" xmlns="http://www.w3.org/2000/svg"
 width="1493.000000pt" height="1053.000000pt" viewBox="0 0 1493.000000 1053.000000"
 preserveAspectRatio="xMidYMid meet">

<g transform="translate(0.000000,1053.000000) scale(0.100000,-0.100000)"
fill="#000000" stroke="none">
<path d="M8744 8555 c0 -99 2 -138 3 -87 2 51 2 132 0 180 -1 48 -3 6 -3 -93z"/>
<path d="M8737 6916 c-15 -39 -5 -1797 10 -1782 3 2 7 405 10 894 5 833 2 947
-20 888z"/>
<path d="M12569 6528 c-1 -46 -4 -73 -6 -60 -6 32 -29 27 -36 -8 -5 -21 -12
-30 -27 -30 -11 0 -20 7 -20 15 0 8 -9 15 -20 15 -11 0 -20 -4 -20 -10 0 -5
-13 -10 -30 -10 -20 0 -30 -5 -30 -15 0 -11 -12 -15 -50 -15 -43 0 -50 -3 -50
-20 0 -11 -4 -20 -10 -20 -5 0 -10 9 -10 20 0 11 -4 20 -10 20 -5 0 -10 -9
-10 -20 0 -18 -7 -20 -80 -20 -44 0 -80 -4 -80 -10 0 -13 -63 -29 -94 -23 -21
4 -26 2 -26 -16 0 -11 -4 -21 -10 -21 -5 0 -10 5 -10 10 0 14 -97 13 -102 -1
-2 -6 -20 -11 -41 -12 -20 0 -37 -5 -37 -9 0 -4 -19 -8 -42 -9 -37 -1 -39 -2
-18 -9 32 -10 13 -13 -72 -10 -103 3 -148 -7 -149 -33 -1 -20 -2 -20 -8 3 -5
16 -10 -21 -14 -100 -6 -117 -30 -756 -31 -845 l-1 -40 95 -6 c225 -15 499
-80 677 -160 36 -16 67 -28 68 -27 29 34 141 333 186 497 48 174 84 362 105
541 16 138 31 520 21 520 -4 0 -8 -37 -8 -82z m-129 -108 c0 -5 -4 -10 -10
-10 -5 0 -10 5 -10 10 0 6 5 10 10 10 6 0 10 -4 10 -10z"/>
<path d="M7770 6465 c0 -6 7 -12 15 -12 8 0 15 6 15 12 0 6 -7 12 -15 12 -8 0
-15 -6 -15 -12z"/>
<path d="M7790 6364 c0 -21 -4 -33 -10 -29 -7 4 -9 -185 -8 -562 1 -312 4
-535 5 -495 2 43 8 72 15 72 7 0 9 -71 4 -242 -14 -555 -15 -570 -31 -594 -8
-13 -15 -34 -15 -48 0 -14 -4 -27 -9 -30 -4 -3 -11 -19 -14 -36 -7 -33 -76
-129 -93 -129 -6 -1 -18 -9 -25 -18 -17 -20 -41 -30 216 85 231 102 517 218
725 295 l145 53 1 689 c0 380 -2 634 -5 565 -6 -120 -7 -125 -28 -128 -21 -3
-23 1 -23 37 0 34 3 41 20 41 18 0 20 7 20 55 0 30 -4 55 -10 55 -5 0 -10 -7
-10 -15 0 -8 -4 -15 -10 -15 -5 0 -10 -13 -10 -30 l0 -30 -66 0 c-70 0 -94
-12 -94 -49 0 -20 -6 -21 -99 -21 -75 0 -103 -4 -115 -15 -8 -8 -26 -15 -40
-15 -19 0 -26 -5 -26 -19 0 -14 -13 -21 -60 -31 -33 -7 -60 -17 -60 -21 0 -5
-18 -9 -40 -9 -22 0 -40 5 -40 10 0 6 -9 10 -20 10 -11 0 -20 -4 -20 -10 0 -5
-9 -10 -20 -10 -13 0 -20 -7 -20 -20 0 -13 -7 -20 -20 -20 -14 0 -20 -7 -20
-21 0 -15 -5 -19 -15 -15 -8 3 -15 1 -15 -4 0 -6 -10 -10 -22 -10 -23 0 -23 2
-24 137 -1 354 -6 623 -10 623 -2 0 -4 -16 -4 -36z m-3 -771 c-2 -16 -4 -3 -4
27 0 30 2 43 4 28 2 -16 2 -40 0 -55z"/>
<path d="M11463 6365 c0 -22 2 -30 4 -17 2 12 2 30 0 40 -3 9 -5 -1 -4 -23z"/>
<path d="M10281 6085 l-1 -51 -92 0 c-132 0 -208 -12 -208 -34 0 -14 -8 -16
-53 -12 -37 3 -63 -1 -85 -12 -19 -10 -56 -16 -97 -16 -51 0 -65 -3 -65 -15 0
-11 -11 -15 -40 -15 -33 0 -40 -3 -40 -20 0 -18 -7 -20 -80 -20 -47 0 -80 -4
-80 -10 0 -6 -27 -10 -60 -10 -34 0 -60 -4 -60 -10 0 -13 -82 -1 -93 14 -5 6
-6 -9 -2 -34 3 -25 8 -65 11 -90 2 -25 7 -52 10 -60 6 -13 17 -63 27 -125 6
-32 38 -137 51 -170 7 -16 21 -54 31 -84 18 -53 71 -172 99 -221 8 -14 25 -46
37 -73 32 -69 25 -69 267 -3 97 27 322 80 382 90 l35 7 -34 -16 c-18 -8 -45
-15 -60 -15 -21 0 -23 -2 -11 -10 11 -8 8 -9 -12 -4 -15 3 -35 1 -45 -6 -16
-10 -16 -10 5 -5 19 5 22 2 22 -19 0 -14 5 -26 10 -26 6 0 10 -18 10 -40 0
-30 4 -40 16 -40 25 0 44 -26 44 -59 0 -20 -5 -31 -15 -32 -29 -3 -33 -4 -42
-13 -5 -5 2 -6 17 -3 14 4 66 17 117 29 52 12 89 26 86 31 -3 6 -1 7 6 3 11
-7 155 19 176 32 6 4 19 6 30 5 16 -1 16 -1 3 3 -15 5 -18 18 -18 94 0 61 -4
90 -12 93 -10 4 -9 8 2 16 12 8 7 11 -20 11 -28 0 -32 -3 -20 -11 12 -9 12
-10 -3 -5 -10 3 -30 6 -43 6 -14 0 -23 4 -20 9 3 4 -5 6 -18 4 -20 -4 -24 0
-29 29 -4 18 -11 233 -17 478 -10 417 -15 553 -19 435z m-241 -90 c0 -8 -4
-15 -10 -15 -5 0 -10 7 -10 15 0 8 5 15 10 15 6 0 10 -7 10 -15z m173 -882
c-7 -2 -19 -2 -25 0 -7 3 -2 5 12 5 14 0 19 -2 13 -5z m-60 -50 c-7 -2 -19 -2
-25 0 -7 3 -2 5 12 5 14 0 19 -2 13 -5z m62 -173 c3 -5 1 -10 -4 -10 -6 0 -11
5 -11 10 0 6 2 10 4 10 3 0 8 -4 11 -10z"/>
<path d="M3693 5762 c-29 -2 -53 -7 -53 -12 0 -5 31 -73 69 -152 38 -79 99
-206 136 -283 157 -327 276 -564 313 -620 85 -131 250 -247 397 -278 157 -34
334 -2 470 84 122 77 227 223 260 360 28 122 14 294 -31 384 -9 17 -46 95 -84
175 -169 360 -155 337 -194 343 -35 6 -1184 5 -1283 -1z"/>
<path d="M10331 5584 c0 -11 3 -14 6 -6 3 7 2 16 -1 19 -3 4 -6 -2 -5 -13z"/>
<path d="M10343 5340 c-1 -41 2 -100 7 -130 l7 -55 0 65 c1 36 -3 94 -7 130
l-7 65 0 -75z"/>
<path d="M10450 5160 c-30 -7 -27 -8 22 -7 31 0 63 4 70 8 16 11 -42 10 -92
-1z"/>
<path d="M8744 4890 c0 -102 2 -143 3 -92 2 50 2 134 0 185 -1 50 -3 9 -3 -93z"/>
<path d="M6851 5004 c0 -11 3 -14 6 -6 3 7 2 16 -1 19 -3 4 -6 -2 -5 -13z"/>
<path d="M11310 4931 c0 -22 5 -41 10 -41 6 0 10 -18 10 -40 0 -22 -4 -40 -10
-40 -5 0 -10 -9 -10 -21 0 -19 4 -20 43 -14 67 10 132 7 163 -10 20 -10 58
-15 120 -15 135 0 389 -37 531 -77 29 -8 57 -12 63 -8 5 3 10 2 10 -3 0 -6 11
-13 24 -16 13 -3 32 -9 43 -12 14 -5 15 -4 7 5 -15 16 2 91 24 108 13 11 4 17
-54 44 -115 52 -166 70 -181 65 -7 -3 -13 -2 -13 3 0 10 -118 43 -130 36 -4
-3 -10 0 -12 5 -7 22 -286 62 -465 67 l-173 6 0 -42z m338 -168 c-10 -2 -26
-2 -35 0 -10 3 -2 5 17 5 19 0 27 -2 18 -5z"/>
<path d="M11280 4794 c0 -9 -8 -23 -17 -30 -16 -11 -8 -13 52 -12 55 1 59 2
22 5 -44 4 -47 6 -41 29 4 14 2 24 -5 24 -6 0 -11 -7 -11 -16z"/>
<path d="M11173 4743 c15 -2 37 -2 50 0 12 2 0 4 -28 4 -27 0 -38 -2 -22 -4z"/>
<path d="M12150 3926 c-73 -19 -180 -89 -237 -153 -72 -81 -135 -172 -127
-185 4 -6 2 -8 -4 -5 -5 4 -22 -14 -38 -40 -47 -81 -214 -324 -273 -398 -31
-38 -54 -74 -53 -80 2 -5 1 -7 -3 -3 -6 6 -42 -22 -106 -84 -17 -16 -79 -38
-108 -38 -9 0 -11 6 -6 18 9 21 13 42 14 65 1 9 8 17 16 17 10 0 15 10 15 30
0 16 9 37 19 47 30 28 61 134 61 207 0 38 5 68 11 72 12 7 7 142 -7 177 -9 23
-24 21 -24 -3 0 -11 -4 -20 -10 -20 -5 0 -10 -13 -10 -29 0 -18 -10 -41 -25
-57 -14 -15 -25 -33 -25 -40 0 -8 -4 -14 -10 -14 -5 0 -10 5 -10 12 0 24 -11
-2 -30 -69 -25 -90 -77 -205 -127 -280 -51 -76 -67 -116 -59 -154 3 -16 2 -28
-2 -25 -4 2 -34 -20 -66 -49 -31 -29 -59 -54 -62 -54 -2 -1 -10 -1 -16 -1 -10
0 -10 -2 -1 -8 6 -4 -13 -7 -42 -7 -29 0 -52 2 -50 4 2 2 -9 14 -25 27 -35 30
-54 103 -48 180 3 30 1 57 -4 60 -4 3 -8 13 -7 22 0 14 2 14 10 -3 7 -16 8
-13 4 13 -2 17 0 32 4 32 5 0 12 15 16 33 4 17 9 41 11 52 4 14 3 16 -4 7 -7
-10 -11 -10 -22 3 -10 12 -23 15 -52 10 -34 -6 -38 -5 -38 14 0 16 -7 21 -30
23 -16 0 -36 1 -42 2 -7 1 -14 -9 -16 -21 -3 -17 -9 -22 -27 -21 -18 2 -21 5
-14 15 8 9 6 11 -10 8 -11 -2 -20 -1 -20 3 4 24 -5 20 -31 -13 -16 -21 -30
-39 -30 -40 0 -5 25 0 38 8 8 6 12 2 12 -12 0 -10 3 -26 6 -34 3 -8 -1 -21 -8
-28 -8 -8 -17 -22 -21 -33 -5 -14 -3 -17 8 -13 8 4 17 1 21 -5 5 -7 2 -8 -6
-3 -10 6 -12 -13 -8 -101 6 -107 30 -200 49 -188 5 3 6 -1 4 -9 -15 -38 83
-110 173 -127 96 -17 177 -3 275 48 64 33 177 129 177 151 0 5 14 8 31 6 17
-2 53 0 81 5 56 11 165 57 155 66 -3 3 -15 0 -27 -6 -12 -6 -24 -9 -28 -6 -9
10 4 17 39 19 40 3 82 24 74 37 -7 11 111 130 120 121 4 -3 6 -1 4 4 -7 28 74
140 93 129 5 -3 7 -2 6 3 -3 13 13 53 22 53 4 0 11 8 14 18 4 9 16 33 29 52
12 20 31 50 42 68 11 18 25 30 32 27 7 -2 15 1 19 7 4 7 3 8 -4 4 -7 -4 -12
-4 -12 -1 0 10 28 35 39 35 13 0 39 -56 45 -101 3 -20 15 -58 26 -85 17 -39
22 -71 22 -159 1 -130 -2 -175 -14 -175 -5 0 -13 -11 -18 -24 -14 -37 -68 -94
-116 -122 -90 -53 -210 -20 -255 69 -12 23 -28 46 -36 50 -7 5 -10 14 -7 20 4
7 -4 2 -17 -11 -38 -36 -34 -104 12 -167 19 -28 40 -50 45 -51 5 0 16 -3 24
-7 45 -18 114 -37 135 -37 13 0 26 -4 29 -9 3 -4 16 -7 28 -5 134 20 226 37
268 50 52 15 132 55 161 80 8 8 21 14 27 14 7 0 12 4 12 8 0 5 21 24 48 43 45
32 76 62 132 127 14 16 41 46 60 68 59 67 190 260 190 280 0 32 -32 9 -106
-78 -115 -136 -259 -282 -326 -328 -32 -23 -58 -38 -58 -34 0 4 5 24 12 46 8
27 14 35 20 26 6 -9 8 -7 6 7 -1 11 0 25 4 30 7 11 -7 202 -17 239 -7 22 -20
51 -75 171 -67 144 -49 258 56 354 57 52 99 67 159 55 40 -7 62 -33 71 -81 8
-42 17 -47 39 -23 13 14 16 29 11 57 -3 21 -8 47 -9 57 -6 35 -73 82 -134 95
-68 13 -75 13 -133 -3z m-310 -426 c0 -5 -5 -10 -11 -10 -5 0 -7 5 -4 10 3 6
8 10 11 10 2 0 4 -4 4 -10z m-1140 -327 c0 -10 -4 -24 -8 -31 -6 -8 -9 -2 -9
18 0 16 4 30 9 30 4 0 8 -8 8 -17z m-240 -198 c15 9 17 -29 2 -52 -24 -38 -32
-26 -31 45 1 59 2 63 10 34 5 -18 14 -30 19 -27z m50 -240 c7 -9 8 -15 2 -15
-5 0 -12 7 -16 15 -3 8 -4 15 -2 15 2 0 9 -7 16 -15z m445 -15 c-3 -5 -12 -10
-18 -10 -7 0 -6 4 3 10 19 12 23 12 15 0z m-232 -77 c-7 -2 -19 -2 -25 0 -7 3
-2 5 12 5 14 0 19 -2 13 -5z"/>
<path d="M12129 3733 c-13 -16 -12 -17 4 -4 16 13 21 21 13 21 -2 0 -10 -8
-17 -17z"/>
<path d="M11140 3625 c13 -14 26 -25 28 -25 3 0 -5 11 -18 25 -13 14 -26 25
-28 25 -3 0 5 -11 18 -25z"/>
<path d="M12063 3565 c0 -22 2 -30 4 -17 2 12 2 30 0 40 -3 9 -5 -1 -4 -23z"/>
<path d="M5785 3510 c-44 -16 -46 -18 -20 -19 17 0 41 8 55 19 29 23 30 23
-35 0z"/>
<path d="M5656 3473 c-15 -4 -16 -7 -5 -14 10 -7 6 -8 -11 -4 -14 3 -52 -4
-85 -15 -33 -11 -47 -17 -31 -14 l30 5 -25 -20 -24 -20 28 -1 c15 0 27 -4 27
-10 0 -5 -18 -10 -40 -10 -29 0 -40 4 -40 15 0 17 -16 20 -25 5 -8 -13 -52
-13 -57 1 -2 5 -11 7 -21 3 -12 -4 -16 -12 -11 -23 3 -9 7 -22 7 -29 0 -7 5
-11 11 -9 6 2 20 1 31 -4 17 -7 16 -8 -7 -8 -21 -1 -28 -6 -28 -20 0 -11 -6
-22 -12 -24 -10 -4 -10 -6 0 -6 6 -1 12 -10 12 -21 0 -16 7 -20 30 -20 27 0
30 3 30 30 0 23 4 30 20 30 18 0 25 16 21 43 0 4 12 7 28 7 16 0 43 3 60 6 27
6 31 4 31 -15 0 -14 -6 -21 -20 -21 -13 0 -20 -7 -20 -20 0 -13 7 -20 20 -20
13 0 20 -7 20 -20 0 -13 -7 -20 -20 -20 -11 0 -20 5 -20 10 0 6 -4 10 -10 10
-5 0 -10 -18 -10 -40 0 -22 -4 -40 -10 -40 -5 0 -10 -18 -10 -40 l0 -40 -40 0
c-38 0 -40 -2 -40 -30 0 -19 -5 -30 -14 -30 -18 0 -30 -33 -21 -60 8 -26 23
-25 48 3 13 15 21 18 24 10 3 -7 16 -13 30 -13 18 0 24 4 20 14 -7 18 20 10
42 -11 11 -12 9 -13 -12 -8 -14 4 -28 2 -32 -5 -9 -14 3 -28 13 -15 4 6 23 11
42 12 54 3 150 26 150 36 0 4 4 6 10 2 5 -3 46 4 92 16 87 22 119 36 56 25
-25 -5 -38 -3 -38 4 0 6 -5 8 -10 5 -6 -4 -8 -11 -5 -16 4 -5 -41 -6 -114 -2
-89 4 -121 3 -121 -5 0 -8 21 -12 57 -12 31 0 53 -3 49 -7 -9 -10 -96 -10
-102 -1 -3 4 -23 8 -45 8 -39 0 -39 0 -39 40 l0 40 159 0 c118 0 161 -3 164
-12 4 -10 6 -10 6 0 1 6 6 12 11 12 6 0 8 -10 5 -22 -6 -22 -4 -23 58 -22 35
1 72 6 83 12 17 10 17 11 2 12 -10 0 -18 5 -18 11 0 7 -11 8 -29 4 -17 -3 -32
-2 -36 4 -3 6 -15 11 -26 11 -10 0 -19 7 -19 15 0 8 -9 15 -20 15 -19 0 -20 7
-20 90 l0 90 -60 0 c-33 0 -60 4 -60 10 0 6 -9 10 -20 10 -15 0 -20 7 -20 28
0 16 8 34 20 42 25 18 26 34 1 27 -14 -3 -18 -1 -14 9 3 8 11 14 19 14 8 0 14
5 14 10 0 6 -11 8 -26 4 -19 -5 -25 -4 -20 5 4 6 6 10 4 10 -2 -1 -12 -4 -22
-6z m109 -463 c3 -5 1 -10 -4 -10 -6 0 -11 5 -11 10 0 6 2 10 4 10 3 0 8 -4
11 -10z"/>
<path d="M10506 3385 c-3 -8 -2 -22 1 -32 5 -12 3 -14 -7 -8 -8 5 -11 4 -6 -3
3 -6 2 -13 -4 -17 -18 -11 -11 -20 15 -20 21 0 25 5 25 28 0 15 -5 27 -11 27
-6 0 -8 9 -4 20 7 23 0 27 -9 5z"/>
<path d="M5300 3360 c0 -5 5 -10 10 -10 6 0 10 5 10 10 0 6 -4 10 -10 10 -5 0
-10 -4 -10 -10z"/>
<path d="M5228 3343 c7 -3 16 -2 19 1 4 3 -2 6 -13 5 -11 0 -14 -3 -6 -6z"/>
<path d="M5760 3340 c0 -5 9 -10 20 -10 11 0 20 5 20 10 0 6 -9 10 -20 10 -11
0 -20 -4 -20 -10z"/>
<path d="M5115 3325 l-50 -13 38 -1 c44 -1 51 -21 7 -21 -23 0 -30 -4 -30 -20
0 -19 7 -20 100 -20 95 0 100 -1 100 -21 0 -19 -5 -21 -67 -19 -92 3 -93 3
-93 -20 0 -18 -7 -20 -80 -20 l-80 0 0 -80 0 -80 60 0 60 0 0 40 0 40 50 0
c43 0 50 3 50 20 0 13 7 20 20 20 13 0 20 -7 20 -20 0 -11 5 -20 10 -20 6 0
10 9 10 20 0 13 7 20 20 20 13 0 20 7 20 20 0 16 7 20 30 20 30 0 30 1 30 55
l0 55 -52 2 c-29 0 -66 0 -81 -1 -26 -2 -28 0 -25 25 4 33 -3 35 -67 19z"/>
<path d="M5020 3300 c-21 -7 -21 -8 -5 -9 11 0 27 4 35 9 18 11 5 11 -30 0z"/>
<path d="M4910 3280 l-25 -8 25 -1 c14 0 32 4 40 9 13 9 13 10 0 9 -8 -1 -26
-5 -40 -9z"/>
<path d="M4850 3260 c8 -5 22 -10 30 -10 13 0 13 1 0 10 -8 5 -22 10 -30 10
-13 0 -13 -1 0 -10z"/>
<path d="M4715 3243 c-11 -3 -24 -9 -29 -14 -17 -15 37 -10 58 6 20 15 12 18
-29 8z"/>
<path d="M4927 3229 c4 -13 8 -18 11 -10 2 7 -1 18 -6 23 -8 8 -9 4 -5 -13z"/>
<path d="M4957 3239 c7 -7 15 -10 18 -7 3 3 -2 9 -12 12 -14 6 -15 5 -6 -5z"/>
<path d="M5480 3230 c0 -17 -7 -20 -50 -20 -43 0 -50 -3 -50 -20 0 -18 7 -20
60 -20 l60 0 0 40 c0 22 -4 40 -10 40 -5 0 -10 -9 -10 -20z"/>
<path d="M3473 3213 c18 -5 24 -39 6 -45 -5 -2 -7 -11 -4 -21 6 -13 19 -17 55
-17 l48 0 0 35 c0 28 -4 35 -19 35 -10 0 -19 5 -19 10 0 6 -19 9 -42 9 -24 -1
-35 -3 -25 -6z"/>
<path d="M4373 3193 c9 -2 23 -2 30 0 6 3 -1 5 -18 5 -16 0 -22 -2 -12 -5z"/>
<path d="M4800 3185 c0 -10 -10 -15 -27 -15 -14 0 -24 -2 -21 -5 2 -3 32 -2
66 1 42 5 62 11 62 20 0 10 -13 14 -40 14 -29 0 -40 -4 -40 -15z"/>
<path d="M4938 3193 c7 -3 16 -2 19 1 4 3 -2 6 -13 5 -11 0 -14 -3 -6 -6z"/>
<path d="M3670 3180 c14 -4 32 -8 40 -9 13 -1 13 0 0 9 -8 5 -26 9 -40 9 l-25
-1 25 -8z"/>
<path d="M3818 3173 c-10 -2 -18 -13 -18 -24 0 -12 -7 -19 -20 -19 -13 0 -20
-7 -20 -20 0 -13 -7 -20 -20 -20 -13 0 -20 -7 -20 -20 0 -17 -7 -20 -40 -20
-33 0 -40 -3 -40 -20 0 -17 7 -20 40 -20 33 0 40 3 40 20 0 13 7 20 20 20 13
0 20 -7 20 -20 0 -17 7 -20 40 -20 33 0 40 3 40 20 0 13 -7 20 -20 20 -17 0
-20 7 -20 40 0 33 3 40 20 40 14 0 20 -7 20 -21 0 -14 5 -19 18 -17 21 4 30
64 10 71 -7 2 0 3 16 1 16 -2 39 -4 52 -4 19 0 24 -5 24 -25 0 -18 5 -25 20
-25 14 0 20 7 20 24 0 21 6 25 50 31 27 4 63 4 80 0 26 -6 30 -11 30 -41 0
-33 1 -34 40 -34 l40 0 0 44 0 44 -202 0 c-112 0 -211 -2 -220 -5z"/>
<path d="M4368 3173 c12 -2 30 -2 40 0 9 3 -1 5 -23 4 -22 0 -30 -2 -17 -4z"/>
<path d="M4278 3163 c-13 -3 -18 -15 -18 -39 0 -19 5 -34 10 -34 6 0 10 9 10
20 0 13 7 20 20 20 13 0 20 7 20 20 0 20 -8 22 -42 13z"/>
<path d="M6018 3079 c15 -5 36 -6 55 0 29 8 27 9 -23 9 -44 1 -50 -1 -32 -9z"/>
<path d="M10304 3066 c5 -13 2 -17 -8 -13 -14 6 -76 -53 -76 -71 0 -4 9 4 20
18 11 14 20 21 20 15 0 -5 4 -4 8 3 6 9 14 7 31 -9 21 -19 21 -22 5 -33 -11
-8 -13 -15 -7 -19 11 -7 35 15 32 29 -3 19 2 29 9 18 4 -7 15 -1 31 18 13 16
17 27 10 26 -7 -2 -13 2 -14 9 0 20 -14 26 -31 13 -13 -12 -17 -11 -26 1 -8
11 -9 10 -4 -5z"/>
<path d="M4160 3040 c0 -23 4 -30 20 -30 16 0 20 7 20 30 0 23 -4 30 -20 30
-16 0 -20 -7 -20 -30z"/>
<path d="M3345 3036 c17 -7 43 -16 60 -20 29 -7 29 -7 11 13 -14 15 -31 21
-60 20 l-41 -1 30 -12z"/>
<path d="M3880 3030 c0 -11 5 -20 10 -20 6 0 10 9 10 20 0 11 -4 20 -10 20 -5
0 -10 -9 -10 -20z"/>
<path d="M3940 3030 c0 -16 7 -20 30 -20 23 0 30 4 30 20 0 16 -7 20 -30 20
-23 0 -30 -4 -30 -20z"/>
<path d="M4280 3030 c0 -13 7 -20 20 -20 13 0 20 7 20 20 0 13 -7 20 -20 20
-13 0 -20 -7 -20 -20z"/>
<path d="M5240 3030 c0 -13 7 -20 20 -20 13 0 20 7 20 20 0 13 -7 20 -20 20
-13 0 -20 -7 -20 -20z"/>
<path d="M3470 2995 c47 -18 74 -18 31 0 -18 8 -41 15 -50 14 -9 0 0 -7 19
-14z"/>
<path d="M4121 2971 c-14 -9 -7 -71 10 -82 5 -3 -19 -4 -53 -3 -47 2 -36 -1
42 -11 170 -23 611 -30 770 -14 88 9 119 15 90 17 -30 2 -40 6 -30 12 12 7 10
13 -9 29 -34 29 -61 27 -61 -4 0 -18 -5 -25 -20 -25 -11 0 -20 7 -20 15 0 8
-9 15 -20 15 -11 0 -20 -6 -20 -14 0 -8 -6 -17 -12 -19 -7 -3 3 -6 22 -7 32
-2 33 -3 10 -10 -14 -4 -40 -8 -57 -9 -27 -1 -34 3 -39 24 -7 30 -39 34 -47 5
-4 -16 -13 -20 -44 -19 -23 1 -29 3 -15 6 12 2 22 11 22 19 0 11 -15 14 -60
14 -46 0 -60 -3 -60 -14 0 -21 -15 -27 -42 -17 -12 6 -17 10 -10 10 20 1 13
21 -8 21 -11 0 -20 5 -20 10 0 6 -33 10 -80 10 -44 0 -80 -4 -80 -9 0 -5 -27
-11 -60 -13 -43 -2 -60 1 -60 10 0 6 9 12 20 12 13 0 20 7 20 20 0 11 -6 20
-12 20 -7 0 -22 3 -33 5 -11 3 -26 1 -34 -4z m72 -88 c-7 -2 -19 -2 -25 0 -7
3 -2 5 12 5 14 0 19 -2 13 -5z m47 -3 c0 -5 -4 -10 -10 -10 -5 0 -10 5 -10 10
0 6 5 10 10 10 6 0 10 -4 10 -10z m108 -7 c-10 -2 -26 -2 -35 0 -10 3 -2 5 17
5 19 0 27 -2 18 -5z m202 -3 c0 -5 -7 -10 -15 -10 -8 0 -15 5 -15 10 0 6 7 10
15 10 8 0 15 -4 15 -10z m363 3 c-7 -2 -19 -2 -25 0 -7 3 -2 5 12 5 14 0 19
-2 13 -5z"/>
<path d="M3625 2955 c28 -8 64 -14 80 -14 32 2 17 5 -90 22 -35 6 -34 5 10 -8z"/>
<path d="M5423 2943 c-34 -7 -28 -20 7 -15 17 2 30 8 30 13 0 5 -3 8 -7 8 -5
-1 -18 -4 -30 -6z"/>
<path d="M10279 2923 c-13 -16 -12 -17 4 -4 16 13 21 21 13 21 -2 0 -10 -8
-17 -17z"/>
<path d="M3780 2921 c14 -4 52 -10 85 -14 41 -4 51 -3 31 3 -37 12 -150 23
-116 11z"/>
<path d="M5248 2923 c6 -2 18 -2 25 0 6 3 1 5 -13 5 -14 0 -19 -2 -12 -5z"/>
<path d="M5270 2910 l-45 -7 45 -1 c25 0 54 3 65 8 l20 9 -20 -1 c-11 -1 -40
-4 -65 -8z"/>
<path d="M5123 2883 c9 -2 23 -2 30 0 6 3 -1 5 -18 5 -16 0 -22 -2 -12 -5z"/>
<path d="M5043 2873 c9 -2 23 -2 30 0 6 3 -1 5 -18 5 -16 0 -22 -2 -12 -5z"/>
<path d="M9995 2670 c-3 -6 1 -7 9 -4 18 7 21 14 7 14 -6 0 -13 -4 -16 -10z"/>
<path d="M9950 2650 c-8 -5 -10 -10 -5 -10 6 0 17 5 25 10 8 5 11 10 5 10 -5
0 -17 -5 -25 -10z"/>
</g>
</svg>
